<?xml version="1.0" encoding="UTF-8"?>
<svg width="120px" height="45px" viewBox="0 0 120 45" version="1.1" xmlns="http://www.w3.org/2000/svg" xmlns:xlink="http://www.w3.org/1999/xlink">
    <title>logo</title>
    <g id="Page-1" stroke="none" stroke-width="1" fill="none" fill-rule="evenodd">
        <g id="logo" fill="#FFFFFF" fill-rule="nonzero">
            <path d="M15.9715428,23.6170213 C16.3533326,23.6170213 16.6714909,23.4893617 16.9260175,23.2340426 C17.180544,22.9787234 17.3078073,22.6702128 17.3078073,22.3085107 L17.3078073,22.3085107 L17.3078073,2.58510638 C17.3078073,2.20212766 17.1858467,1.88829787 16.9419254,1.64361702 C16.6980041,1.39893617 16.3851485,1.27659574 16.0033586,1.27659574 C15.6427793,1.27659574 15.3299237,1.39893617 15.0647918,1.64361702 C14.79966,1.88829787 14.6670941,2.20212766 14.6670941,2.58510638 L14.6670941,2.58510638 L14.6670941,11.0106383 L2.64035974,11.0106383 L2.64071325,2.58510638 C2.64071325,2.23158756 2.53227589,1.93698854 2.31540117,1.70130933 L2.25892338,1.64361702 C2.0043968,1.39893617 1.69684385,1.27659574 1.33626454,1.27659574 C0.954474668,1.27659574 0.636316445,1.39893617 0.381789867,1.64361702 C0.127263289,1.88829787 0,2.20212766 0,2.58510638 L0,2.58510638 L0,22.3085107 C0,22.6702128 0.116658015,22.9787234 0.349974045,23.2340426 C0.583290075,23.4893617 0.901448295,23.6170213 1.30444871,23.6170213 C1.66502804,23.6170213 1.97788362,23.4893617 2.24301547,23.2340426 C2.50814732,22.9787234 2.64071325,22.6702128 2.64071325,22.3085107 L2.64071325,22.3085107 L2.64035974,13.5 L14.6670941,13.5 L14.6670941,22.3085107 C14.6670941,22.6423895 14.7755315,22.9309455 14.9924062,23.1741785 L15.048884,23.2340426 C15.3034105,23.4893617 15.6109634,23.6170213 15.9715428,23.6170213 Z M31.6744186,23.9361702 C32.8409987,23.9361702 33.9280394,23.6861702 34.9355404,23.1861702 C35.9430414,22.6861703 36.7543449,22.106383 37.3694508,21.4468085 C37.7088196,21.1702128 37.8785039,20.8510638 37.8785039,20.4893617 C37.8785039,20.1914893 37.7724512,19.9361702 37.5603458,19.7234042 C37.3482403,19.5106383 37.0937137,19.4042553 36.796766,19.4042553 C36.5210288,19.4042553 36.2452917,19.5 35.9695546,19.6914893 C35.6938175,19.9893617 35.3597513,20.2819149 34.9673562,20.5691489 C34.5749611,20.8563829 34.1030264,21.0957447 33.5515521,21.287234 C33.0000779,21.4787234 32.3425509,21.5744681 31.5789712,21.5744681 C30.412391,21.5744681 29.3836794,21.3031915 28.4928364,20.7606383 C27.6019934,20.2180851 26.9073479,19.4787234 26.4089,18.5425532 C25.9852193,17.7468085 25.7416029,16.8434575 25.6780508,15.8325 L25.674308,15.7659574 L37.2103717,15.7659574 C37.5214598,15.7659574 37.7969023,15.6676271 38.0366993,15.4709663 L38.1012147,15.4148936 C38.3557413,15.1808511 38.4936098,14.893617 38.5148204,14.5531915 C38.4936098,13.3617021 38.2708991,12.2819149 37.8466881,11.3138298 C37.4224772,10.3457447 36.855095,9.51595748 36.1445417,8.82446805 C35.4339883,8.1329787 34.6279874,7.606383 33.7265392,7.24468085 C32.8250909,6.88297872 31.8759188,6.70212766 30.879023,6.70212766 C29.5639691,6.70212766 28.323152,7.04787234 27.1565719,7.73936168 C25.9899917,8.4308511 25.0408197,9.43085107 24.3090557,10.7393617 C23.5772918,12.0478723 23.2114099,13.6276596 23.2114099,15.4787234 C23.2114099,17.1382979 23.561384,18.6010638 24.261332,19.8670213 C24.9612801,21.1329787 25.9475706,22.1276596 27.2202035,22.8510638 C28.4928364,23.5744681 29.9775748,23.9361702 31.6744186,23.9361702 Z M35.8104755,13.5641844 L25.8033389,13.5641844 L25.835221,13.3997673 C25.8932186,13.1163564 25.9657156,12.8485289 26.052712,12.5962849 L26.1066497,12.4468085 C26.4035974,11.6595745 26.8012952,11.0159575 27.2997431,10.5159575 C27.798191,10.0159574 28.3602704,9.6542553 28.9859816,9.43085108 C29.6116928,9.20744678 30.2427066,9.0957447 30.879023,9.0957447 C31.6638134,9.0957447 32.4167878,9.26595743 33.1379465,9.60638295 C33.8591051,9.94680848 34.4689083,10.4308511 34.9673562,11.0585107 C35.4658041,11.6861702 35.7468439,12.4361702 35.8104755,13.3085107 L35.8104755,13.3085107 L35.8104755,13.5641844 Z M49.5089546,30 C50.9936929,30 52.3246548,29.712766 53.5018403,29.1382979 C54.6790256,28.5638298 55.6175924,27.6861702 56.3175405,26.5053191 C57.0174886,25.3244681 57.3674627,23.8404255 57.3674627,22.0531915 L57.3674627,22.0531915 L57.3674627,8.13829785 C57.3674627,7.77659573 57.245502,7.47340426 57.0015807,7.2287234 C56.7576594,6.98404256 56.455409,6.86170213 56.0948297,6.86170213 C55.7130399,6.86170213 55.405487,6.98404256 55.1721709,7.2287234 C54.9388549,7.47340426 54.8221969,7.77659573 54.8221969,8.13829785 L54.8221969,8.13829785 L54.8221969,17.2021277 C54.8221969,18.0106383 54.615394,18.75 54.2017883,19.4202128 C53.7881826,20.0904255 53.2367084,20.6170213 52.5473656,21 C51.8580227,21.3829787 51.0891404,21.5744681 50.2407185,21.5744681 C48.9044539,21.5744681 47.9181635,21.2074468 47.281847,20.4734042 C46.6455305,19.7393617 46.3273723,18.6489362 46.3273723,17.2021277 L46.3273723,17.2021277 L46.3273723,8.13829785 C46.3273723,7.77659573 46.2107143,7.47340426 45.9773983,7.2287234 C45.7440822,6.98404256 45.4365293,6.86170213 45.0547394,6.86170213 C44.6941601,6.86170213 44.3919098,6.98404256 44.1479885,7.2287234 C43.9040672,7.47340426 43.7821065,7.77659573 43.7821065,8.13829785 L43.7821065,8.13829785 L43.7821065,17.7765958 C43.7821065,18.9893617 43.9995146,20.0585107 44.4343309,20.9840426 C44.8691471,21.9095745 45.5054636,22.6329787 46.3432802,23.1542553 C47.1810969,23.6755319 48.2045058,23.9361702 49.4135071,23.9361702 C50.3043501,23.9361702 51.1209562,23.7978724 51.8633254,23.5212766 C52.6056946,23.2446809 53.2632215,22.8617021 53.8359064,22.3723404 C54.1883278,22.0711948 54.496571,21.7378195 54.7606361,21.3722145 L54.8221969,21.2840426 L54.8221969,22.1170213 C54.8221969,23.2659575 54.6318307,24.2382566 54.2510984,25.0339188 L54.1858804,25.1648936 C53.7616694,25.9840426 53.1571688,26.606383 52.3723785,27.0319149 C51.5875883,27.4574468 50.6437189,27.6702128 49.5407704,27.6702128 C48.7347695,27.6702128 48.0083083,27.5372341 47.3613866,27.2712766 C46.7144648,27.0053191 46.2213196,26.7978724 45.8819508,26.6489362 C45.5637926,26.5 45.2615423,26.5 44.9751998,26.6489362 C44.6888575,26.7978724 44.4714494,27.0638298 44.3229755,27.4468085 C44.2169228,27.7659575 44.2434359,28.0691489 44.4025151,28.3563829 C44.5615942,28.6436171 44.842634,28.8829787 45.2456344,29.0744681 C45.733477,29.3510639 46.3591881,29.5744681 47.1227678,29.7446809 C47.8863476,29.9148936 48.6817432,30 49.5089546,30 Z M70.2705461,23.9361702 C71.1401786,23.9361702 71.9461794,23.7765958 72.6885486,23.4574468 C73.4309178,23.1382978 74.0831421,22.7340425 74.6452217,22.2446809 C75.1208273,21.8306056 75.5053155,21.3898716 75.7986863,20.9224789 L75.8061458,20.9099291 L75.806499,22.3085107 C75.806499,22.6423895 75.9104183,22.9309455 76.1182568,23.1741785 L76.1723813,23.2340426 C76.4163023,23.4893617 76.718553,23.6170213 77.079132,23.6170213 C77.4397118,23.6170213 77.7419618,23.4893617 77.9858828,23.2340426 C78.2298045,22.9787234 78.351765,22.6702128 78.351765,22.3085107 L78.351765,22.3085107 L78.351765,1.27659575 C78.351765,0.91489362 78.235107,0.611702128 78.001791,0.367021276 C77.768475,0.122340425 77.4609218,0 77.079132,0 C76.718553,0 76.4163023,0.122340425 76.1723813,0.367021276 C75.9284595,0.611702128 75.806499,0.91489362 75.806499,1.27659575 L75.806499,1.27659575 L75.8061458,9.50886525 L75.7994393,9.498741 C75.546921,9.13917915 75.2442,8.7997608 74.8912766,8.48048595 L74.756577,8.36170215 C74.1626817,7.85106382 73.4786415,7.44680851 72.7044565,7.14893617 C71.9302715,6.85106383 71.0977575,6.70212766 70.2069145,6.70212766 C68.7858077,6.70212766 67.5078722,7.06914893 66.3731079,7.80319147 C65.2383436,8.53723403 64.3368953,9.55319153 63.668763,10.8510638 C63.0006307,12.1489362 62.6665646,13.6382979 62.6665646,15.3191489 C62.6665646,16.9787234 63.0006307,18.4574468 63.668763,19.7553191 C64.3368953,21.0531915 65.2436462,22.0744681 66.3890158,22.8191489 C67.5343854,23.5638298 68.8282289,23.9361702 70.2705461,23.9361702 Z M70.5250727,21.5744681 C69.4857558,21.5744681 68.5577943,21.2978723 67.7411882,20.7446809 C66.9245822,20.1914893 66.2829631,19.4414893 65.816331,18.4946809 C65.3496989,17.5478723 65.1163829,16.4893617 65.1163829,15.3191489 C65.1163829,14.106383 65.3496989,13.0319149 65.816331,12.0957447 C66.2829631,11.1595745 66.9245822,10.4202128 67.7411882,9.8776596 C68.5577943,9.33510638 69.4857558,9.0638298 70.5250727,9.0638298 C71.5856001,9.0638298 72.5241668,9.33510638 73.340773,9.8776596 C74.1573791,10.4202128 74.7989981,11.1595745 75.2656305,12.0957447 C75.7322625,13.0319149 75.9655785,14.106383 75.9655785,15.3191489 C75.9655785,16.5106383 75.7322625,17.5797872 75.2656305,18.5265958 C74.7989981,19.4734043 74.1626817,20.2180851 73.3566809,20.7606383 C72.55068,21.3031915 71.6068106,21.5744681 70.5250727,21.5744681 Z M91.4139278,23.9361702 C92.2835603,23.9361702 93.0895605,23.7819149 93.83193,23.4734042 C94.5742995,23.1648936 95.221221,22.7712766 95.7726953,22.2925532 C96.232257,21.893617 96.6108068,21.4688239 96.908343,21.0181738 L96.949527,20.9535461 L96.9498803,22.3085107 C96.9498803,22.6423895 97.0537995,22.9309455 97.261638,23.1741785 L97.3157625,23.2340426 C97.5596835,23.4893617 97.8619343,23.6170213 98.2225133,23.6170213 C98.583093,23.6170213 98.885343,23.4893617 99.1292648,23.2340426 C99.3731858,22.9787234 99.4951463,22.6702128 99.4951463,22.3085107 L99.4951463,22.3085107 L99.4951463,8.23404255 C99.4951463,7.87234042 99.3784883,7.56914895 99.1451723,7.32446809 C98.9118563,7.07978723 98.604303,6.95744681 98.2225133,6.95744681 C97.8619343,6.95744681 97.5596835,7.07978723 97.3157625,7.32446809 C97.0718415,7.56914895 96.9498803,7.87234042 96.9498803,8.23404255 L96.9498803,8.23404255 L96.949527,9.4723404 L96.873918,9.36484958 C96.6476933,9.0546393 96.3830318,8.75985143 96.0799343,8.48048595 L95.9476823,8.36170215 C95.3643923,7.85106383 94.6803518,7.44680851 93.8955615,7.14893617 C93.1107713,6.85106383 92.2623495,6.70212766 91.3502963,6.70212766 C89.9291895,6.70212766 88.651254,7.06914893 87.516489,7.80319148 C86.3817248,8.53723403 85.4802765,9.54787238 84.8121443,10.8351064 C84.144012,12.1223404 83.8099463,13.606383 83.8099463,15.287234 C83.8099463,16.9468085 84.1387095,18.4255319 84.7962368,19.7234042 C85.4537632,21.0212766 86.3605148,22.0478723 87.516489,22.8031915 C88.672464,23.5585106 89.9716103,23.9361702 91.4139278,23.9361702 Z M91.6684538,21.5744681 C90.6291375,21.5744681 89.701176,21.2978723 88.88457,20.7446809 C88.0679633,20.1914893 87.4263443,19.4414893 86.9597123,18.4946809 C86.4930803,17.5478723 86.2597643,16.4787234 86.2597643,15.287234 C86.2597643,14.0744681 86.4930803,13 86.9597123,12.0638298 C87.4263443,11.1276596 88.0679633,10.393617 88.88457,9.86170215 C89.701176,9.32978723 90.6291375,9.0638298 91.6684538,9.0638298 C92.7289815,9.0638298 93.667548,9.33510638 94.4841548,9.8776596 C95.3007608,10.4202128 95.9423798,11.1648936 96.4090118,12.1117022 C96.8756438,13.0585106 97.1089598,14.1170213 97.1089598,15.287234 C97.1089598,16.4787234 96.8756438,17.5478723 96.4090118,18.4946809 C95.9423798,19.4414893 95.3007608,20.1914893 94.4841548,20.7446809 C93.667548,21.2978723 92.7289815,21.5744681 91.6684538,21.5744681 Z M111.316492,30 C112.80123,30 114.132192,29.712766 115.309378,29.1382979 C116.486563,28.5638298 117.42513,27.6861702 118.125078,26.5053191 C118.825026,25.3244681 119.175,23.8404255 119.175,22.0531915 L119.175,22.0531915 L119.175,8.13829785 C119.175,7.77659573 119.05304,7.47340426 118.809118,7.2287234 C118.565197,6.98404256 118.262947,6.86170213 117.902367,6.86170213 C117.520577,6.86170213 117.213024,6.98404256 116.979708,7.2287234 C116.746392,7.47340426 116.629734,7.77659573 116.629734,8.13829785 L116.629734,8.13829785 L116.629734,17.2021277 C116.629734,18.0106383 116.422931,18.75 116.009326,19.4202128 C115.59572,20.0904255 115.044246,20.6170213 114.354903,21 C113.66556,21.3829787 112.896678,21.5744681 112.048256,21.5744681 C110.711991,21.5744681 109.725701,21.2074468 109.089384,20.4734042 C108.453068,19.7393617 108.13491,18.6489362 108.13491,17.2021277 L108.13491,17.2021277 L108.13491,8.13829785 C108.13491,7.77659573 108.018252,7.47340426 107.784936,7.2287234 C107.551619,6.98404256 107.244067,6.86170213 106.862277,6.86170213 C106.501697,6.86170213 106.199447,6.98404256 105.955526,7.2287234 C105.711605,7.47340426 105.589644,7.77659573 105.589644,8.13829785 L105.589644,8.13829785 L105.589644,17.7765958 C105.589644,18.9893617 105.807052,20.0585107 106.241868,20.9840426 C106.676684,21.9095745 107.313001,22.6329787 108.150818,23.1542553 C108.988634,23.6755319 110.012043,23.9361702 111.221045,23.9361702 C112.111888,23.9361702 112.928494,23.7978724 113.670863,23.5212766 C114.413232,23.2446809 115.070759,22.8617021 115.643444,22.3723404 C115.995866,22.0711948 116.304109,21.7378195 116.568173,21.3722145 L116.629734,21.2840426 L116.629734,22.1170213 C116.629734,23.2659575 116.439368,24.2382566 116.058636,25.0339188 L115.993418,25.1648936 C115.569207,25.9840426 114.964706,26.606383 114.179916,27.0319149 C113.395126,27.4574468 112.451256,27.6702128 111.348308,27.6702128 C110.542307,27.6702128 109.815845,27.5372341 109.168924,27.2712766 C108.522002,27.0053191 108.028857,26.7978724 107.689488,26.6489362 C107.37133,26.5 107.06908,26.5 106.782737,26.6489362 C106.496395,26.7978724 106.278987,27.0638298 106.130513,27.4468085 C106.02446,27.7659575 106.050974,28.0691489 106.210052,28.3563829 C106.369132,28.6436171 106.650171,28.8829787 107.053172,29.0744681 C107.541014,29.3510639 108.166726,29.5744681 108.930305,29.7446809 C109.693885,29.9148936 110.489281,30 111.316492,30 Z" id="Heyday"></path>
            <path d="M12.6368406,43.1037234 C12.907577,43.1037234 13.1539471,43.0576064 13.375951,42.9653724 C13.5979549,42.8731383 13.7752873,42.7402127 13.9079481,42.5665958 C14.0406089,42.3929787 14.1069394,42.1868085 14.1069394,41.9480851 C14.1069394,41.7419149 14.07039,41.5710107 13.9972911,41.4353723 C13.9241923,41.299734 13.8267271,41.1871542 13.7048958,41.0976329 C13.5830644,41.0081117 13.4422814,40.9335107 13.2825469,40.8738298 C13.1228125,40.8141489 12.9563095,40.7626064 12.7830382,40.7192022 C12.5772786,40.6649468 12.3918241,40.605266 12.2266749,40.5401596 C12.0615257,40.4750532 11.9288648,40.3936702 11.8286923,40.2960107 C11.7285199,40.1983511 11.6730189,40.0708511 11.6621895,39.9135107 C11.6621895,39.7453191 11.7082147,39.6096809 11.800265,39.5065958 C11.8923154,39.4035107 12.0073784,39.3261968 12.1454539,39.2746542 C12.2835295,39.2231117 12.4310809,39.1973404 12.5881081,39.1973404 C12.7938677,39.1973404 12.9860905,39.2353191 13.1647766,39.3112766 C13.3434627,39.387234 13.4977824,39.4984575 13.6277359,39.6449468 C13.665639,39.6883511 13.7130178,39.7100532 13.7698725,39.7100532 C13.8267271,39.7100532 13.8768134,39.6937766 13.9201312,39.6612234 C13.9742785,39.6123936 14.0013522,39.556782 14.0013522,39.4943883 C14.0013522,39.4319947 13.9769859,39.3763829 13.9282534,39.3275532 C13.8091293,39.1864893 13.6737611,39.075266 13.5221487,38.9938829 C13.3705363,38.9125 13.2162166,38.8541755 13.0591894,38.8189096 C12.9021623,38.7836436 12.7559646,38.7660107 12.6205964,38.7660107 C12.34986,38.7660107 12.1075509,38.8148404 11.8936691,38.9125 C11.6797873,39.0101596 11.5105771,39.1457979 11.3860383,39.3194149 C11.2614995,39.4930319 11.1992302,39.6937766 11.1992302,39.9216489 C11.1992302,40.116968 11.2398406,40.2824468 11.3210616,40.4180851 C11.4022825,40.5537234 11.5092234,40.669016 11.6418842,40.7639627 C11.774545,40.8589096 11.9275111,40.9375798 12.1007824,40.9999734 C12.2740538,41.062367 12.4527398,41.1179787 12.6368406,41.1668085 C12.8101119,41.2102127 12.9739075,41.2617553 13.1282272,41.3214362 C13.2825469,41.3811171 13.4084394,41.4625 13.5059045,41.5655851 C13.6033696,41.6686702 13.6521022,41.8043085 13.6521022,41.9725 C13.6521022,42.135266 13.6033696,42.2695478 13.5059045,42.3753458 C13.4084394,42.4811436 13.2852543,42.5598138 13.1363493,42.6113564 C12.9874443,42.6628989 12.8371855,42.6886702 12.6855731,42.6886702 C12.3985925,42.6886702 12.1508687,42.6303458 11.9424016,42.5136968 C11.7339346,42.3970478 11.5566022,42.2437766 11.4104046,42.0538829 C11.361672,42.0050532 11.3088784,41.9779255 11.2520238,41.9725 C11.1951691,41.9670745 11.1450829,41.9833511 11.101765,42.0213298 C11.0367883,42.0593085 11.0029462,42.1094947 11.0002389,42.1718883 C10.9975315,42.234282 11.0178367,42.298032 11.0611546,42.3631383 C11.272329,42.6289893 11.5146381,42.818883 11.7880819,42.9328191 C12.0615257,43.0467553 12.3444452,43.1037234 12.6368406,43.1037234 Z M22.2858868,43.0223404 C22.3292046,43.0223404 22.3806445,43.0006383 22.4402065,42.957234 C22.4997685,42.9138298 22.5295495,42.8541489 22.5295495,42.7781915 C22.5295495,42.7076596 22.5051832,42.645266 22.4564507,42.5910107 L22.4564507,42.5910107 L20.6928972,40.7068178 L22.3671077,39.2787234 C22.4147573,39.2353191 22.4433471,39.1867064 22.452877,39.1328851 L22.4564507,39.0915425 C22.4564507,39.0318617 22.4320844,38.97625 22.3833519,38.9247074 C22.3346193,38.8731649 22.2804721,38.8473936 22.22091,38.8473936 C22.1559333,38.8473936 22.0990786,38.8745213 22.050346,38.9287766 L22.050346,38.9287766 L19.7030613,40.9513205 L19.7030613,37.2441489 C19.7030613,37.1920638 19.6883332,37.1451872 19.6588771,37.1035191 L19.6340235,37.0732447 C19.5879983,37.0244149 19.52979,37 19.4593985,37 C19.389007,37 19.3307987,37.0244149 19.2847735,37.0732447 C19.2387483,37.1220745 19.2157357,37.1790425 19.2157357,37.2441489 L19.2157357,37.2441489 L19.2157357,42.7781915 C19.2157357,42.8432978 19.2387483,42.900266 19.2847735,42.9490958 C19.3307987,42.9979255 19.389007,43.0223404 19.4593985,43.0223404 C19.52979,43.0223404 19.5879983,42.9979255 19.6340235,42.9490958 C19.6800487,42.900266 19.7030613,42.8432978 19.7030613,42.7781915 L19.7030613,42.7781915 L19.7030613,41.5510777 L20.3161027,41.0281036 L22.1072007,42.9328191 C22.1478112,42.9825532 22.1959421,43.0115647 22.2515935,43.0198537 L22.2858868,43.0223404 Z M27.8007877,38.2451596 C27.9090823,38.2451596 27.9916569,38.2193883 28.0485115,38.1678458 C28.1053662,38.1163032 28.1337935,38.0417021 28.1337935,37.9440425 L28.1337935,37.9440425 L28.1337935,37.8626596 C28.1337935,37.765 28.1053662,37.6903989 28.0485115,37.6388564 C27.9916569,37.5873138 27.9117897,37.5615425 27.8089098,37.5615425 C27.7006153,37.5615425 27.6153333,37.5873138 27.5530639,37.6388564 C27.4907945,37.6903989 27.4596598,37.765 27.4596598,37.8626596 L27.4596598,37.8626596 L27.4596598,37.9440425 C27.4596598,38.0417021 27.4880872,38.1163032 27.5449418,38.1678458 C27.6017965,38.2193883 27.6870784,38.2451596 27.8007877,38.2451596 Z M27.8007877,43.0223404 C27.8657644,43.0223404 27.9226191,42.9979255 27.9713517,42.9490958 C28.0200842,42.900266 28.0444505,42.8432978 28.0444505,42.7781915 L28.0444505,42.7781915 L28.0444505,39.0345745 C28.0444505,38.9694681 28.0214379,38.9125 27.9754127,38.8636702 C27.9293875,38.8148404 27.8711792,38.7904255 27.8007877,38.7904255 C27.7303963,38.7904255 27.6721879,38.8148404 27.6261628,38.8636702 C27.5801375,38.9125 27.557125,38.9694681 27.557125,39.0345745 L27.557125,39.0345745 L27.557125,42.7781915 C27.557125,42.8432978 27.5801375,42.900266 27.6261628,42.9490958 C27.6721879,42.9979255 27.7303963,43.0223404 27.8007877,43.0223404 Z M36.5482816,43.0223404 C36.6132583,43.0223404 36.670113,42.9979255 36.7188456,42.9490958 C36.7675781,42.900266 36.7919444,42.8432978 36.7919444,42.7781915 L36.7919444,42.7781915 L36.7919444,40.385532 C36.7919444,40.0871276 36.7445655,39.8144947 36.6498078,39.5676329 C36.55505,39.3207713 36.4007302,39.1254522 36.1868485,38.9816755 C35.9729667,38.8378989 35.6873398,38.7660107 35.3299677,38.7660107 C35.1350374,38.7660107 34.9414609,38.802633 34.749238,38.8758776 C34.5570152,38.9491223 34.3823902,39.0494947 34.2253631,39.1769947 C34.068336,39.3044947 33.9397362,39.4482713 33.8395637,39.6083245 L33.8598689,39.5780712 L33.8598689,39.132234 C33.8598689,39.0801489 33.8451409,39.0332723 33.8156848,38.9916042 L33.7908311,38.9613298 C33.7448059,38.9125 33.6865976,38.8880851 33.6162061,38.8880851 C33.5458147,38.8880851 33.4876063,38.9125 33.4415812,38.9613298 C33.3955559,39.0101596 33.3725434,39.0671276 33.3725434,39.132234 L33.3725434,39.132234 L33.3725434,42.7781915 C33.3725434,42.8432978 33.3942022,42.900266 33.4375201,42.9490958 C33.4808379,42.9979255 33.5404,43.0223404 33.6162061,43.0223404 C33.6811828,43.0223404 33.7380375,42.9979255 33.7867701,42.9490958 C33.8355026,42.900266 33.8598689,42.8432978 33.8598689,42.7781915 L33.8598689,42.7781915 L33.8598689,40.4099468 C33.8598689,40.1929255 33.9248457,39.9948936 34.0547992,39.8158511 C34.1847526,39.6368085 34.3539629,39.4930319 34.5624299,39.3845213 C34.770897,39.2760107 34.9915471,39.2217553 35.2243805,39.2217553 C35.4842875,39.2217553 35.6941082,39.2760107 35.8538427,39.3845213 C36.0135772,39.4930319 36.1286401,39.6368085 36.1990316,39.8158511 C36.2694231,39.9948936 36.3046188,40.1929255 36.3046188,40.4099468 L36.3046188,40.4099468 L36.3046188,42.7781915 C36.3046188,42.8432978 36.3262777,42.900266 36.3695956,42.9490958 C36.4129134,42.9979255 36.4724754,43.0223404 36.5482816,43.0223404 Z M50.0634439,42.9328191 C50.1392501,42.9328191 50.2015195,42.9084042 50.2502521,42.8595745 C50.2989846,42.8107447 50.3233509,42.7456383 50.3233509,42.6642553 L50.3233509,42.6642553 L50.3233509,41.1749468 L51.7447171,41.1749468 C51.7966985,41.1749468 51.8426154,41.1601893 51.8824678,41.1306745 L51.91122,41.1057713 C51.9572452,41.0596542 51.9802578,41.0067553 51.9802578,40.9470745 C51.9802578,40.8765425 51.9572452,40.818218 51.91122,40.7721011 C51.8651948,40.725984 51.8096938,40.7029255 51.7447171,40.7029255 L51.7447171,40.7029255 L50.3233509,40.7029255 L50.3233509,39.2136171 C50.3233509,39.1571915 50.3086228,39.1077107 50.2791667,39.0651745 L50.2543131,39.0345745 C50.2082879,38.9857447 50.1446649,38.9613298 50.0634439,38.9613298 C49.9930525,38.9613298 49.9321368,38.9857447 49.8806968,39.0345745 C49.8292569,39.0834042 49.803537,39.1457979 49.803537,39.2217553 L49.803537,39.2217553 L49.8031838,40.7029255 L48.3902928,40.7029255 C48.3383114,40.7029255 48.2923945,40.7168149 48.2525422,40.7445936 L48.2237899,40.7680319 C48.1777648,40.8114362 48.1547521,40.8656915 48.1547521,40.9307978 C48.1547521,41.0013298 48.1777648,41.0596542 48.2237899,41.1057713 C48.2698151,41.1518883 48.3253161,41.1749468 48.3902928,41.1749468 L48.3902928,41.1749468 L49.8031838,41.1749468 L49.803537,42.6723936 C49.803537,42.7331596 49.8191314,42.7852447 49.8503202,42.8286489 L49.8766358,42.8595745 C49.9253683,42.9084042 49.9876377,42.9328191 50.0634439,42.9328191 Z M65.2923678,43.1037234 C65.6497399,43.1037234 65.9719162,43.0087766 66.2588968,42.818883 C66.5458774,42.6289893 66.773296,42.3685638 66.9411526,42.0376064 C67.1090092,41.7066489 67.1929375,41.335 67.1929375,40.9226596 C67.1929375,40.4994681 67.1090092,40.1264627 66.9411526,39.8036436 C66.773296,39.4808245 66.5472311,39.2271809 66.2629579,39.0427127 C65.9786846,38.8582447 65.6524473,38.7660107 65.2842457,38.7660107 C65.100145,38.7660107 64.9241662,38.7944947 64.7563097,38.8514627 C64.5884531,38.9084309 64.4341333,38.9884575 64.2933504,39.0915425 C64.1525674,39.1946277 64.0293824,39.3153458 63.9237952,39.4536968 C63.8815603,39.5090373 63.8434406,39.5667649 63.8094361,39.6268798 L63.7975496,39.6491929 L63.7979027,37.2522873 C63.7979027,37.1958617 63.7831747,37.1472489 63.7537186,37.1064489 L63.728865,37.0773138 C63.6828397,37.0311968 63.6246314,37.0081383 63.5542399,37.0081383 C63.4784338,37.0081383 63.4188718,37.0311968 63.3755539,37.0773138 C63.3322361,37.1234309 63.3105772,37.1817553 63.3105772,37.2522873 L63.3105772,37.2522873 L63.3105772,42.7944681 C63.3105772,42.865 63.3335898,42.9233245 63.379615,42.9694415 C63.4256401,43.0155585 63.4838485,43.038617 63.5542399,43.038617 C63.6246314,43.038617 63.6828397,43.0155585 63.728865,42.9694415 C63.7748902,42.9233245 63.7979027,42.865 63.7979027,42.7944681 L63.7979027,42.7944681 L63.7975496,42.2608788 L63.8492344,42.3374213 L63.8492344,42.3374213 L63.911612,42.4201064 C64.0199066,42.5557447 64.1444454,42.67375 64.2852283,42.7741223 C64.4260112,42.8744947 64.5816847,42.9545213 64.7522486,43.0142021 C64.9228126,43.0738829 65.1028523,43.1037234 65.2923678,43.1037234 Z M65.2436353,42.6479787 C64.9512399,42.6479787 64.6940403,42.5733776 64.4720365,42.4241755 C64.2500326,42.2749734 64.0754076,42.0688032 63.9481615,41.8056649 C63.8209153,41.5425266 63.7572923,41.2481915 63.7572923,40.9226596 C63.7572923,40.5917022 63.8209153,40.2987234 63.9481615,40.0437234 C64.0754076,39.7887234 64.2500326,39.5879787 64.4720365,39.4414893 C64.6940403,39.295 64.9512399,39.2217553 65.2436353,39.2217553 C65.5306159,39.2217553 65.7837544,39.295 66.0030509,39.4414893 C66.2223475,39.5879787 66.3969724,39.7887234 66.5269259,40.0437234 C66.6568794,40.2987234 66.7218562,40.5917022 66.7218562,40.9226596 C66.7218562,41.242766 66.6568794,41.5343883 66.5269259,41.7975266 C66.3969724,42.0606649 66.2223475,42.2681915 66.0030509,42.4201064 C65.7837544,42.5720213 65.5306159,42.6479787 65.2436353,42.6479787 Z M74.1048385,43.1037234 C74.4134779,43.1037234 74.6977512,43.0318351 74.9576581,42.8880585 C75.2175652,42.744282 75.4287395,42.574734 75.5911814,42.3794149 C75.6453287,42.3305851 75.6724024,42.273617 75.6724024,42.2085107 C75.6724024,42.1542553 75.6520971,42.1054255 75.6114866,42.0620213 C75.5708761,42.0186171 75.5207899,41.9969149 75.4612279,41.9969149 C75.4070806,41.9969149 75.350226,42.0213298 75.290664,42.0701596 C75.2148577,42.1678191 75.1187464,42.2614096 75.0023297,42.3509309 C74.885913,42.4404521 74.7518985,42.5123404 74.6002861,42.5665958 C74.4486737,42.6208511 74.2808171,42.6479787 74.0967163,42.6479787 C73.7501737,42.6479787 73.455071,42.5720213 73.2114082,42.4201064 C72.9677455,42.2681915 72.7809373,42.0620213 72.6509839,41.8015958 C72.5210303,41.5411702 72.4560536,41.2509042 72.4560536,40.9307978 L72.4560536,40.9389362 L75.5262046,40.9389362 C75.5781861,40.9389362 75.6249693,40.9241787 75.6665544,40.8946638 L75.6967686,40.8697607 C75.7455012,40.8236436 75.7698674,40.7680319 75.7698674,40.7029255 C75.7644527,40.3882447 75.7075981,40.1115425 75.5993035,39.8728191 C75.4910089,39.6340958 75.350226,39.4319947 75.1769547,39.266516 C75.0036834,39.1010372 74.8046921,38.97625 74.5799809,38.8921542 C74.3552696,38.8080585 74.12379,38.7660107 73.8855419,38.7660107 C73.5606582,38.7660107 73.2533724,38.8541755 72.9636844,39.0305053 C72.6739964,39.2068351 72.4384558,39.457766 72.2570623,39.7832978 C72.0756689,40.1088298 71.9849722,40.5021809 71.9849722,40.9633511 C71.9849722,41.3919681 72.0743152,41.7663298 72.2530013,42.0864362 C72.4316873,42.4065425 72.6807649,42.656117 73.0002338,42.8351596 C73.3197028,43.0142021 73.6879043,43.1037234 74.1048385,43.1037234 Z M75.2659446,40.4998219 L72.4924264,40.4998219 L72.5068167,40.4275586 C72.5203535,40.3666062 72.5365977,40.3081121 72.5555492,40.2520766 L72.5860071,40.1698671 C72.6726427,39.9555585 72.7849984,39.7792287 72.923074,39.6408776 C73.0611495,39.5025266 73.2154693,39.4007978 73.3860332,39.3356915 C73.5565972,39.2705851 73.7231001,39.2380319 73.8855419,39.2380319 C74.102131,39.2380319 74.3092444,39.2841489 74.506882,39.3763829 C74.7045196,39.468617 74.8737299,39.6042553 75.0145128,39.7832978 C75.1552957,39.9623404 75.239224,40.1793617 75.2662977,40.4343617 L75.2662977,40.4343617 L75.2659446,40.4998219 Z M82.5030823,43.1037234 C82.735916,43.1037234 82.951151,43.0616755 83.1487888,42.9775798 C83.3464265,42.893484 83.5183438,42.7836171 83.6645413,42.6479787 C83.8107395,42.5123404 83.9258023,42.3658511 84.0097303,42.2085107 L83.997194,42.2300949 L83.9975473,42.7781915 C83.9975473,42.8302766 84.0114088,42.8771532 84.0391325,42.9188213 L84.0625243,42.9490958 C84.105842,42.9979255 84.165404,43.0223404 84.2412103,43.0223404 C84.3061873,43.0223404 84.3630418,42.9979255 84.4117738,42.9490958 C84.4605065,42.900266 84.4848733,42.8432978 84.4848733,42.7781915 L84.4848733,42.7781915 L84.4848733,39.1159574 C84.4848733,39.0454255 84.4618603,38.9857447 84.415835,38.9369149 C84.3698098,38.8880851 84.3116015,38.8636702 84.2412103,38.8636702 C84.165404,38.8636702 84.105842,38.8880851 84.0625243,38.9369149 C84.0192065,38.9857447 83.9975473,39.0454255 83.9975473,39.1159574 L83.9975473,39.1159574 L83.997194,39.6272549 L83.992133,39.6168018 C83.927156,39.5001529 83.84774,39.3925466 83.7538843,39.2939827 L83.6807855,39.2217553 C83.529173,39.0806915 83.3518408,38.9694681 83.1487888,38.8880851 C82.945736,38.8067022 82.7277935,38.7660107 82.4949605,38.7660107 C82.1375885,38.7660107 81.8154118,38.8582447 81.528431,39.0427127 C81.2414503,39.2271809 81.0140323,39.4808245 80.8461755,39.8036436 C80.6783188,40.1264627 80.5943908,40.4994681 80.5943908,40.9226596 C80.5943908,41.335 80.676965,41.7066489 80.8421143,42.0376064 C81.0072635,42.3685638 81.2346823,42.6289893 81.5243705,42.818883 C81.814058,43.0087766 82.1402953,43.1037234 82.5030823,43.1037234 Z M82.551815,42.6479787 C82.2648343,42.6479787 82.0089883,42.5733776 81.784277,42.4241755 C81.5595658,42.2749734 81.384941,42.0688032 81.260402,41.8056649 C81.135863,41.5425266 81.0735943,41.2481915 81.0735943,40.9226596 C81.0735943,40.5917022 81.1372168,40.2987234 81.2644633,40.0437234 C81.391709,39.7887234 81.5676883,39.5879787 81.7923995,39.4414893 C82.0171108,39.295 82.2702493,39.2217553 82.551815,39.2217553 C82.8387958,39.2217553 83.093288,39.2977128 83.3152918,39.4496276 C83.5372955,39.6015425 83.7119203,39.805 83.8391668,40.06 C83.9664125,40.315 84.0300358,40.6025532 84.0300358,40.9226596 C84.0300358,41.2481915 83.9664125,41.5425266 83.8391668,41.8056649 C83.7119203,42.0688032 83.5372955,42.2749734 83.3152918,42.4241755 C83.093288,42.5733776 82.8387958,42.6479787 82.551815,42.6479787 Z M91.404896,43.0793085 C91.9192955,43.0793085 92.328107,42.9382447 92.631332,42.656117 C92.934557,42.3739893 93.0861695,41.9643617 93.0861695,41.427234 L93.0861695,41.427234 L93.0861695,39.132234 C93.0861695,39.0671276 93.0631565,39.0101596 93.0171313,38.9613298 C92.971106,38.9125 92.9128978,38.8880851 92.8425065,38.8880851 C92.7667003,38.8880851 92.7071383,38.9125 92.6638205,38.9613298 C92.6205028,39.0101596 92.5988435,39.0671276 92.5988435,39.132234 L92.5988435,39.132234 L92.5988435,41.427234 C92.5988435,41.8178724 92.4932563,42.1149202 92.2820818,42.3183777 C92.0709073,42.5218351 91.7785123,42.6235638 91.404896,42.6235638 C91.0366948,42.6235638 90.7483603,42.5218351 90.5398933,42.3183777 C90.3314263,42.1149202 90.2271928,41.8178724 90.2271928,41.427234 L90.2271928,41.427234 L90.2271928,39.132234 C90.2271928,39.0671276 90.2041798,39.0101596 90.1581545,38.9613298 C90.1121293,38.9125 90.053921,38.8880851 89.9835298,38.8880851 C89.9131385,38.8880851 89.8549303,38.9125 89.808905,38.9613298 C89.7628798,39.0101596 89.7398668,39.0671276 89.7398668,39.132234 L89.7398668,39.132234 L89.7398668,41.427234 C89.7398668,41.9643617 89.8901255,42.3739893 90.190643,42.656117 C90.4911605,42.9382447 90.8959115,43.0793085 91.404896,43.0793085 Z M99.6244535,43.0223404 C99.7435775,43.0223404 99.846458,42.9965691 99.9330935,42.9450266 C100.019729,42.893484 100.063047,42.829734 100.063047,42.7537766 C100.063047,42.6940958 100.045449,42.645266 100.010254,42.6072872 C99.9750575,42.5693085 99.9330935,42.5503191 99.8843608,42.5503191 C99.841043,42.5503191 99.8017865,42.5571011 99.7665905,42.5706649 C99.7313945,42.5842287 99.692138,42.5910107 99.6488203,42.5910107 C99.5838433,42.5910107 99.5188663,42.5788032 99.45389,42.5543883 C99.388913,42.5299734 99.3361198,42.4797873 99.2955088,42.4038298 C99.2548985,42.3278724 99.234593,42.2139362 99.234593,42.0620213 L99.234593,42.0620213 L99.2342405,39.3356915 L100.046803,39.3356915 C100.098784,39.3356915 100.143835,39.3218021 100.181954,39.2940234 L100.209244,39.2705851 C100.252562,39.2271809 100.274221,39.1756383 100.274221,39.1159574 C100.274221,39.0508511 100.252562,38.9952393 100.209244,38.9491223 C100.165927,38.9030053 100.11178,38.8799468 100.046803,38.8799468 L100.046803,38.8799468 L99.2342405,38.8799468 L99.234593,37.9765958 C99.234593,37.9245107 99.2198653,37.877634 99.190409,37.835966 L99.1655555,37.8056915 C99.1195303,37.7568617 99.061322,37.7324468 98.9909308,37.7324468 C98.9205388,37.7324468 98.8623305,37.7568617 98.8163053,37.8056915 C98.7702808,37.8545213 98.7472678,37.9114893 98.7472678,37.9765958 L98.7472678,37.9765958 L98.7469145,38.8799468 L98.1543553,38.8799468 C98.1023735,38.8799468 98.056457,38.8938362 98.0166043,38.9216149 L97.9878523,38.9450532 C97.941827,38.9884575 97.918814,39.0427127 97.918814,39.1078191 C97.918814,39.1675 97.941827,39.2203989 97.9878523,39.266516 C98.0338775,39.312633 98.0893783,39.3356915 98.1543553,39.3356915 L98.1543553,39.3356915 L98.7469145,39.3356915 L98.7472678,42.0864362 C98.7472678,42.3000665 98.773178,42.4700806 98.8249985,42.5964786 L98.8487938,42.6479787 C98.9164783,42.7781915 99.00176,42.8690691 99.1046398,42.9206117 C99.2075195,42.9721542 99.3076925,43.0019947 99.4051573,43.0101329 C99.5026228,43.0182713 99.5757215,43.0223404 99.6244535,43.0223404 Z M106.617576,44.65 C106.991192,44.65 107.324198,44.5726862 107.616593,44.4180585 C107.908989,44.2634309 108.141822,44.0355585 108.315093,43.7344415 C108.488365,43.4333245 108.575,43.0630319 108.575,42.6235638 L108.575,42.6235638 L108.575,39.0345745 C108.575,38.9694681 108.551988,38.9125 108.505963,38.8636702 C108.459937,38.8148404 108.401729,38.7904255 108.331337,38.7904255 C108.260946,38.7904255 108.202738,38.8148404 108.156712,38.8636702 C108.110687,38.9125 108.087675,38.9694681 108.087675,39.0345745 L108.087675,39.0345745 L108.087675,41.4597873 C108.087675,41.6659575 108.025405,41.8599202 107.900866,42.0416755 C107.776327,42.2234309 107.616593,42.3699202 107.421663,42.4811436 C107.226733,42.5923671 107.012851,42.6479787 106.780018,42.6479787 C106.406401,42.6479787 106.137019,42.5448936 105.971869,42.3387234 C105.80672,42.1325532 105.724146,41.8395745 105.724146,41.4597873 L105.724146,41.4597873 L105.724146,39.0345745 C105.724146,38.9694681 105.701133,38.9125 105.655108,38.8636702 C105.609082,38.8148404 105.550874,38.7904255 105.480483,38.7904255 C105.404677,38.7904255 105.345115,38.8148404 105.301797,38.8636702 C105.258479,38.9125 105.23682,38.9694681 105.23682,39.0345745 L105.23682,39.0345745 L105.23682,41.533032 C105.23682,41.8477127 105.28826,42.1217021 105.39114,42.355 C105.49402,42.5882978 105.6524,42.7714096 105.866282,42.9043351 C106.080164,43.0372607 106.349547,43.1037234 106.67443,43.1037234 C106.89102,43.1037234 107.095426,43.0671011 107.287648,42.9938564 C107.479871,42.9206117 107.650435,42.818883 107.79934,42.6886702 C107.89861,42.6018617 107.982839,42.5066135 108.052027,42.4029255 L108.087322,42.3461541 L108.087675,42.6317022 C108.087675,42.9210638 108.040613,43.1750591 107.94649,43.393688 L107.908989,43.474016 C107.789864,43.7100266 107.620654,43.8904255 107.401357,44.0152127 C107.182061,44.14 106.923508,44.2023936 106.625698,44.2023936 C106.403694,44.2023936 106.206056,44.1671276 106.032785,44.0965958 C105.859514,44.0260638 105.726853,43.9663829 105.634803,43.9175532 C105.575241,43.8904255 105.517032,43.8890691 105.460177,43.913484 C105.403323,43.9378989 105.361359,43.9880851 105.334285,44.0640425 C105.307211,44.1237234 105.309919,44.1806915 105.342407,44.2349468 C105.374896,44.2892021 105.423628,44.3353191 105.488605,44.3732979 C105.613144,44.4546809 105.774232,44.5211436 105.971869,44.5726862 C106.169507,44.6242287 106.384742,44.65 106.617576,44.65 Z" id="skin+beauty"></path>
        </g>
    </g>
</svg>